<?xml version="1.0" encoding="iso-8859-1"?>
<!-- Generator: Adobe Illustrator 18.0.0, SVG Export Plug-In . SVG Version: 6.00 Build 0)  -->
<!DOCTYPE svg PUBLIC "-//W3C//DTD SVG 1.1//EN" "http://www.w3.org/Graphics/SVG/1.1/DTD/svg11.dtd">
<svg version="1.1" id="Capa_1" xmlns="http://www.w3.org/2000/svg" xmlns:xlink="http://www.w3.org/1999/xlink" x="0px" y="0px"
	 viewBox="0 0 438.479 438.479" style="enable-background:new 0 0 438.479 438.479;" xml:space="preserve">
<path d="M404.034,4.95C402.24,1.884,398.955,0,395.403,0H43.076c-3.552,0-6.837,1.884-8.631,4.95
	c-1.793,3.065-1.827,6.853-0.086,9.949L190.49,292.701v135.778c0,3.654,1.994,7.018,5.199,8.772c1.499,0.82,3.151,1.228,4.8,1.228
	c1.878,0,3.752-0.528,5.391-1.577l37.499-23.999c2.872-1.838,4.609-5.013,4.609-8.423V292.701L404.121,14.899
	C405.861,11.803,405.828,8.016,404.034,4.95z M210.49,410.207V300.083h17.499v98.924L210.49,410.207z M232.138,280.083h-25.797
	L60.167,20h318.144L232.138,280.083z"/>
<g>
</g>
<g>
</g>
<g>
</g>
<g>
</g>
<g>
</g>
<g>
</g>
<g>
</g>
<g>
</g>
<g>
</g>
<g>
</g>
<g>
</g>
<g>
</g>
<g>
</g>
<g>
</g>
<g>
</g>
</svg>
