<?xml version="1.0" standalone="no"?>
<!DOCTYPE svg PUBLIC "-//W3C//DTD SVG 1.0//EN" "http://www.w3.org/TR/2001/REC-SVG-20010904/DTD/svg10.dtd">
<svg xmlns="http://www.w3.org/2000/svg" xmlns:xlink="http://www.w3.org/1999/xlink" id="body_1" width="420" height="315">

<g transform="matrix(1.3863461 0 0 1.3863461 52.499985 -0)">
    <path d="M175.897 141.476C 162.64801 141.476 150.787 147.52 142.917 156.994L142.917 156.994L91.72301 127.928C 93.31501 123.448 94.19001 118.631004 94.19001 113.611C 94.19001 108.592 93.31501 103.775 91.72301 99.295L91.72301 99.295L142.91301 70.222C 150.78201 79.699 162.645 85.745 175.895 85.745C 199.529 85.745 218.757 66.51 218.757 42.866C 218.759 19.229 199.531 0 175.897 0C 152.26 0 133.03 19.229 133.03 42.865C 133.03 47.885002 133.90399 52.703003 135.497 57.184002L135.497 57.184002L84.304 86.258C 76.435 76.786 64.575 70.744 51.329002 70.744C 27.689003 70.744 8.456001 89.97301 8.456001 113.61C 8.456001 137.246 27.689001 156.475 51.329002 156.475C 64.575005 156.475 76.434006 150.43301 84.303 140.962L84.303 140.962L135.49701 170.029C 133.904 174.51001 133.029 179.32901 133.029 184.35C 133.029 207.98601 152.259 227.21501 175.89601 227.21501C 199.53001 227.21501 218.75801 207.98502 218.75801 184.35C 218.759 160.71 199.531 141.476 175.897 141.476zM175.897 15C 191.26001 15 203.759 27.5 203.759 42.864998C 203.759 58.238 191.26001 70.743996 175.897 70.743996C 160.531 70.743996 148.03 58.237995 148.03 42.864998C 148.03 27.5 160.531 15 175.897 15zM51.33 141.476C 35.961002 141.476 23.457003 128.97499 23.457003 113.611C 23.457003 98.245 35.961002 85.745 51.33 85.745C 66.693 85.745 79.191 98.245 79.191 113.611C 79.191 128.975 66.692 141.476 51.33 141.476zM175.897 212.216C 160.531 212.216 148.03 199.715 148.03 184.351C 148.03 168.981 160.531 156.476 175.897 156.476C 191.26001 156.476 203.759 168.981 203.759 184.351C 203.759 199.715 191.26 212.216 175.897 212.216z" stroke="none" fill="#000000" fill-rule="nonzero" />
	<g>
	</g>
	<g>
	</g>
	<g>
	</g>
	<g>
	</g>
	<g>
	</g>
	<g>
	</g>
	<g>
	</g>
	<g>
	</g>
	<g>
	</g>
	<g>
	</g>
	<g>
	</g>
	<g>
	</g>
	<g>
	</g>
	<g>
	</g>
	<g>
	</g>
</g>
</svg>